#!OML:ASF Y:\EmotionMaleHayes\Project 1\Capture day 1\Session 1\Male1.ASF
:FULLY-SPECIFIED
:DEGREES
893
root 48.2234 17.1674 -1.46502 1179.37 86.7533 1180.23
lowerback 3.6802 1.62129 -6.78088
upperback 1.11727 1.93284 -0.575056
thorax -1.11282 0.985421 3.11443
lowerneck -21.8693 0.987844 2.19442
upperneck 21.543 0.939042 -0.77607
head 10.5483 0.556646 -0.49083
rclavicle 1.55549e-014 -1.37161e-014
rhumerus -33.3337 6.34686 -89.8626
rradius 30.9484
rwrist 4.77372
rhand -9.6255 -31.4793
rfingers 7.12502
rthumb 16.3443 -60.8105
lclavicle 1.55549e-014 -1.37161e-014
lhumerus -30.5002 -10.3089 93.0363
lradius 22.5539
lwrist -16.4375
lhand -15.2292 -27.482
lfingers 7.12502
lthumb 10.9437 2.21277
rfemur 6.68555 -2.29028 11.8061
rtibia 4.85736
rfoot -13.6928 1.32018
rtoes 5.54004
lfemur 11.4858 -0.929635 -21.0018
ltibia -0.885725
lfoot -12.4816 9.95385
ltoes -4.10148
894
root 48.2221 17.1673 -1.46171 1180.04 86.9978 1180.93
lowerback 3.74395 1.63082 -6.53648
upperback 1.11232 1.9485 -0.49091
thorax -1.15062 0.99348 3.06215
lowerneck -21.8776 0.988333 2.11775
upperneck 21.5844 0.953427 -0.724776
head 10.5645 0.563797 -0.457455
rclavicle 1.16165e-015 -2.10712e-014
rhumerus -33.3569 6.37533 -89.9019
rradius 31.0375
rwrist 4.7506
rhand -9.59955 -31.4215
rfingers 7.12502
rthumb 16.3692 -60.7507
lclavicle 1.16165e-015 -2.10712e-014
lhumerus -30.5251 -10.2904 93.0301
lradius 22.4536
lwrist -16.3582
lhand -15.3134 -27.3357
lfingers 7.12502
lthumb 10.8625 2.36339
rfemur 6.69956 -2.11439 12.1866
rtibia 4.85187
rfoot -13.7328 1.15694
rtoes 5.72902
lfemur 11.5238 -0.947483 -20.6629
ltibia -0.928993
lfoot -12.479 9.97873
ltoes -3.95835
895
root 48.2219 17.1665 -1.45845 1180.41 87.2785 1181.32
lowerback 3.7438 1.6623 -6.24271
upperback 1.14906 2.00254 -0.404044
thorax -1.11171 1.01759 2.98541
lowerneck -22.001 0.957661 2.01137
upperneck 21.659 0.928326 -0.664009
head 10.6133 0.551087 -0.421527
rclavicle -1.62134e-015 -6.36111e-015
rhumerus -33.3197 6.45368 -89.9517
rradius 31.0876
rwrist 4.58359
rhand -9.6816 -31.3569
rfingers 7.12502
rthumb 16.2902 -60.6926
lclavicle -1.62134e-015 -6.36111e-015
lhumerus -30.4493 -10.2131 92.9884
lradius 22.3059
lwrist -16.3664
lhand -15.4608 -27.5168
lfingers 7.12502
lthumb 10.7203 2.18966
rfemur 6.72046 -1.92294 12.6041
rtibia 4.82584
rfoot -13.8124 0.935973
rtoes 5.50292
lfemur 11.5697 -0.96805 -20.3
ltibia -0.963035
lfoot -12.4723 10.0701
ltoes -3.89859
896
root 48.2206 17.1665 -1.45732 1179.59 87.0788 1180.47
lowerback 3.66927 1.67746 -6.45248
upperback 1.18952 2.0233 -0.45973
thorax -1.03496 1.02566 3.04689
lowerneck -22.0695 0.918929 1.91342
upperneck 21.6323 0.869735 -0.532572
head 10.6143 0.531851 -0.366949
rclavicle 9.44227e-015 -1.11319e-014
rhumerus -33.2427 6.47533 -90.0064
rradius 31.1045
rwrist 4.49203
rhand -9.67347 -31.2686
rfingers 7.12502
rthumb 16.2981 -60.6037
lclavicle 9.44227e-015 -1.11319e-014
lhumerus -30.3584 -10.1395 92.9033
lradius 22.1689
lwrist -16.4674
lhand -15.6349 -27.7482
lfingers 7.12502
lthumb 10.5524 1.96693
rfemur 6.67882 -1.90351 12.3568
rtibia 4.83925
rfoot -13.8367 0.883351
rtoes 5.20948
lfemur 11.5137 -0.995473 -20.5609
ltibia -0.929011
lfoot -12.5296 10.1314
ltoes -3.90693
897
root 48.2191 17.1686 -1.46022 1179.33 86.6449 1180.13
lowerback 3.59024 1.66792 -6.84773
upperback 1.18149 2.00364 -0.58305
thorax -1.00518 1.01636 3.14341
lowerneck -22.0602 0.881532 1.84426
upperneck 21.6137 0.826404 -0.477026
head 10.6045 0.5131 -0.342244
rclavicle -1.2306e-014 1.98785e-016
rhumerus -33.2175 6.45613 -90.0414
rradius 31.1126
rwrist 4.52272
rhand -9.58751 -31.2142
rfingers 7.12502
rthumb 16.3808 -60.5425
lclavicle -1.2306e-014 1.98785e-016
lhumerus -30.3225 -9.98158 92.799
lradius 22.0829
lwrist -16.7509
lhand -15.5746 -27.7482
lfingers 7.12502
lthumb 10.6106 1.96393
rfemur 6.59539 -2.17767 11.7334
rtibia 4.87098
rfoot -13.7781 1.14864
rtoes 5.54458
lfemur 11.3714 -0.945207 -21.1123
ltibia -0.87513
lfoot -12.4079 10.0824
ltoes -4.4109
898
root 48.2214 17.1673 -1.44569 1177.06 86.9024 1177.92
lowerback 3.65539 1.74734 -6.77267
upperback 1.18852 2.1066 -0.469368
thorax -1.04703 1.06819 3.2117
lowerneck -22.0631 0.850631 1.76725
upperneck 21.6164 0.806106 -0.463694
head 10.6053 0.49903 -0.327826
rclavicle 1.05045e-014 -2.26615e-014
rhumerus -33.2096 6.58627 -90.1023
rradius 31.045
rwrist 4.46346
rhand -9.64549 -31.0827
rfingers 7.12502
rthumb 16.325 -60.4156
lclavicle 1.05045e-014 -2.26615e-014
lhumerus -30.3458 -9.74949 92.7057
lradius 22.0626
lwrist -17.0916
lhand -15.4916 -27.7417
lfingers 7.12502
lthumb 10.6906 1.96628
rfemur 6.66777 -1.36633 12.2945
rtibia 4.7412
rfoot -13.8563 0.533711
rtoes 5.85902
lfemur 11.4853 -0.950329 -20.6785
ltibia -0.957243
lfoot -12.3038 10.2094
ltoes -4.48792
899
root 48.2206 17.1666 -1.45115 1178.11 86.8982 1178.96
lowerback 3.68934 1.73361 -6.6765
upperback 1.17164 2.08798 -0.479932
thorax -1.07793 1.06006 3.14674
lowerneck -22.0534 0.875204 1.81011
upperneck 21.6137 0.831675 -0.484933
head 10.6032 0.511689 -0.338639
rclavicle 1.55238e-014 -1.54058e-014
rhumerus -33.1756 6.9123 -90.2536
rradius 30.9105
rwrist 4.225
rhand -9.87949 -30.8559
rfingers 7.12502
rthumb 16.0997 -60.2072
lclavicle 1.55238e-014 -1.54058e-014
lhumerus -30.3754 -9.52914 92.6106
lradius 22.0513
lwrist -17.2919
lhand -15.303 -27.591
lfingers 7.12502
lthumb 10.8725 2.10758
rfemur 6.62846 -1.67569 12.2053
rtibia 4.83689
rfoot -13.8406 0.770148
rtoes 5.74352
lfemur 11.4701 -0.930613 -20.7214
ltibia -0.942317
lfoot -12.2246 10.1249
ltoes -4.56072
900
root 48.2211 17.166 -1.45135 1178.41 86.9392 1179.26
lowerback 3.65583 1.73036 -6.61542
upperback 1.19528 2.08961 -0.467273
thorax -1.03331 1.0589 3.12706
lowerneck -22.018 0.913264 1.89119
upperneck 21.5862 0.871457 -0.537398
head 10.5877 0.529942 -0.364917
rclavicle 1.82323e-014 -7.55382e-015
rhumerus -33.2575 6.88551 -90.3297
rradius 31.0947
rwrist 4.23232
rhand -9.94032 -30.7955
rfingers 7.12502
rthumb 16.0411 -60.1515
lclavicle 1.82323e-014 -7.55382e-015
lhumerus -30.3135 -9.24239 92.4667
lradius 21.9647
lwrist -17.5758
lhand -14.9565 -27.3439
lfingers 7.12502
lthumb 11.2067 2.33683
rfemur 6.62726 -1.69656 12.2554
rtibia 4.85859
rfoot -13.8222 0.753172
rtoes 5.5007
lfemur 11.4903 -0.92477 -20.6715
ltibia -0.957867
lfoot -12.1633 10.0978
ltoes -4.96761
901
root 48.2222 17.1665 -1.44698 1177.84 86.7752 1178.66
lowerback 3.62163 1.76588 -6.80182
upperback 1.18855 2.13313 -0.511888
thorax -1.03027 1.08116 3.18363
lowerneck -22.0527 0.816162 1.67167
upperneck 21.5477 0.767095 -0.379221
head 10.5769 0.483064 -0.287787
rclavicle -6.57853e-015 -2.08724e-015
rhumerus -33.3392 6.76285 -90.3918
rradius 31.2017
rwrist 4.21991
rhand -9.93109 -30.7981
rfingers 7.12502
rthumb 16.05 -60.1533
lclavicle -6.57853e-015 -2.08724e-015
lhumerus -30.2554 -9.04379 92.3534
lradius 21.831
lwrist -17.8842
lhand -14.8916 -27.4233
lfingers 7.12502
lthumb 11.2693 2.25402
rfemur 6.60196 -1.54211 12.0965
rtibia 4.82915
rfoot -13.8441 0.624462
rtoes 5.28224
lfemur 11.4446 -0.895354 -20.8345
ltibia -0.953091
lfoot -12.3498 10.0836
ltoes -4.42927
902
root 48.2212 17.1662 -1.45881 1181.16 86.83 1181.96
lowerback 3.72153 1.73205 -6.48184
upperback 1.12231 2.08752 -0.551306
thorax -1.13776 1.06247 2.96245
lowerneck -22.0491 0.818135 1.75521
upperneck 21.5977 0.743972 -0.383364
head 10.5948 0.479859 -0.306528
rclavicle 1.44057e-014 -1.76918e-014
rhumerus -33.4901 6.59571 -90.4471
rradius 31.3248
rwrist 4.273
rhand -9.93924 -30.892
rfingers 7.12502
rthumb 16.0422 -60.2479
lclavicle 1.44057e-014 -1.76918e-014
lhumerus -30.2969 -8.87388 92.2389
lradius 21.7211
lwrist -18.202
lhand -15.0239 -27.6925
lfingers 7.12502
lthumb 11.1417 1.99169
rfemur 6.59411 -2.27979 11.977
rtibia 4.92748
rfoot -13.8182 1.26984
rtoes 5.40929
lfemur 11.4042 -0.891797 -20.8474
ltibia -0.894267
lfoot -12.6572 9.89468
ltoes -3.08695
903
root 48.2268 17.1684 -1.44943 1180.85 87.1645 1181.62
lowerback 3.66838 1.75578 -6.24869
upperback 1.09298 2.12931 -0.448641
thorax -1.13844 1.08267 2.93702
lowerneck -22.069 0.767907 1.67947
upperneck 21.5858 0.695558 -0.37187
head 10.5931 0.452459 -0.29731
rclavicle 3.22839e-014 -6.95746e-015
rhumerus -33.5605 6.58104 -90.5195
rradius 31.3384
rwrist 4.38032
rhand -9.90857 -30.8818
rfingers 7.12502
rthumb 16.0717 -60.2353
lclavicle 3.22839e-014 -6.95746e-015
lhumerus -30.3478 -8.60048 92.0871
lradius 21.6669
lwrist -18.6027
lhand -14.9464 -27.7355
lfingers 7.12502
lthumb 11.2165 1.94468
rfemur 6.5758 -1.79023 12.5638
rtibia 4.86373
rfoot -13.8944 0.873242
rtoes 5.47656
lfemur 11.4208 -0.947625 -20.3747
ltibia -0.914538
lfoot -12.8322 9.92947
ltoes -2.11379
